<mxfile host="app.diagrams.net" modified="2020-06-24T09:47:56.809Z" agent="5.0 (X11; Linux x86_64) AppleWebKit/537.36 (KHTML, like Gecko) Chrome/83.0.4103.106 Safari/537.36" etag="08-OITL0saUs00NHBxx4" version="13.3.2" type="github">
  <diagram name="Page-1" id="bfe91b75-5d2c-26a0-9c1d-138518896778">
    <mxGraphModel dx="1422" dy="764" grid="1" gridSize="10" guides="1" tooltips="1" connect="1" arrows="1" fold="1" page="1" pageScale="1" pageWidth="1100" pageHeight="850" background="#ffffff" math="0" shadow="0">
      <root>
        <mxCell id="0" />
        <mxCell id="1" parent="0" />
        <mxCell id="7c3789c024ecab99-57" value="&lt;font style=&quot;font-size: 16px&quot;&gt;&lt;b&gt;NoSQL&lt;br&gt;DATABASE&lt;/b&gt;&lt;/font&gt;" style="fontColor=#0066CC;verticalAlign=top;verticalLabelPosition=bottom;labelPosition=center;align=center;html=1;fillColor=#CCCCCC;strokeColor=#6881B3;gradientDirection=north;strokeWidth=2;shape=mxgraph.networks.storage;rounded=0;shadow=0;comic=0;" parent="1" vertex="1">
          <mxGeometry x="1510" y="1079" width="100" height="100" as="geometry" />
        </mxCell>
        <mxCell id="7c3789c024ecab99-82" value="Service D" style="rounded=1;whiteSpace=wrap;html=1;shadow=0;comic=0;strokeColor=#036897;strokeWidth=2;fillColor=none;fontFamily=Verdana;fontSize=28;fontColor=#6881B3;align=center;arcSize=11;verticalAlign=top;" parent="1" vertex="1">
          <mxGeometry x="78" y="1355" width="1065" height="420" as="geometry" />
        </mxCell>
        <mxCell id="7c3789c024ecab99-81" value="Service C" style="rounded=1;whiteSpace=wrap;html=1;shadow=0;comic=0;strokeColor=#036897;strokeWidth=2;fillColor=none;fontFamily=Verdana;fontSize=28;fontColor=#6881B3;align=center;arcSize=11;verticalAlign=top;" parent="1" vertex="1">
          <mxGeometry x="75" y="900" width="1065" height="420" as="geometry" />
        </mxCell>
        <mxCell id="7c3789c024ecab99-79" value="Service B" style="rounded=1;whiteSpace=wrap;html=1;shadow=0;comic=0;strokeColor=#036897;strokeWidth=2;fillColor=none;fontFamily=Verdana;fontSize=28;fontColor=#6881B3;align=center;arcSize=11;verticalAlign=top;" parent="1" vertex="1">
          <mxGeometry x="78" y="462" width="1065" height="420" as="geometry" />
        </mxCell>
        <mxCell id="7c3789c024ecab99-78" value="Service A" style="rounded=1;whiteSpace=wrap;html=1;shadow=0;comic=0;strokeColor=#036897;strokeWidth=2;fillColor=none;fontFamily=Verdana;fontSize=28;fontColor=#6881B3;align=center;arcSize=11;verticalAlign=top;" parent="1" vertex="1">
          <mxGeometry x="75" y="20" width="1065" height="420" as="geometry" />
        </mxCell>
        <mxCell id="7c3789c024ecab99-55" style="edgeStyle=none;html=1;labelBackgroundColor=none;endArrow=none;endFill=0;strokeWidth=2;fontFamily=Verdana;fontSize=28;fontColor=#6881B3;" parent="1" source="IsxZeFrFsDxmlHhnj4ec-55" target="7c3789c024ecab99-54" edge="1">
          <mxGeometry relative="1" as="geometry">
            <mxPoint x="1660" y="837.0000000000002" as="targetPoint" />
            <mxPoint x="1590" y="897" as="sourcePoint" />
          </mxGeometry>
        </mxCell>
        <mxCell id="7c3789c024ecab99-18" style="edgeStyle=orthogonalEdgeStyle;html=1;labelBackgroundColor=none;endArrow=none;endFill=0;strokeWidth=2;fontFamily=Verdana;fontSize=15;fontColor=#036897;" parent="1" source="7c3789c024ecab99-9" target="7c3789c024ecab99-10" edge="1">
          <mxGeometry relative="1" as="geometry">
            <mxPoint x="1110" y="310" as="targetPoint" />
            <Array as="points">
              <mxPoint x="1370" y="192" />
            </Array>
          </mxGeometry>
        </mxCell>
        <mxCell id="7c3789c024ecab99-9" value="" style="fontColor=#0066CC;verticalAlign=top;verticalLabelPosition=bottom;labelPosition=center;align=center;html=1;fillColor=#CCCCCC;strokeColor=#6881B3;gradientDirection=north;strokeWidth=2;shape=mxgraph.networks.wireless_hub;rounded=0;shadow=0;comic=0;" parent="1" vertex="1">
          <mxGeometry x="670.0000000000002" y="120" width="100" height="85" as="geometry" />
        </mxCell>
        <mxCell id="7c3789c024ecab99-13" style="edgeStyle=none;html=1;labelBackgroundColor=none;endArrow=none;endFill=0;strokeWidth=2;fontFamily=Verdana;fontSize=15;fontColor=#036897;" parent="1" target="7c3789c024ecab99-9" edge="1">
          <mxGeometry relative="1" as="geometry">
            <mxPoint x="650.0000000000002" y="240" as="targetPoint" />
            <mxPoint x="230.00000000000023" y="328.10185185185173" as="sourcePoint" />
          </mxGeometry>
        </mxCell>
        <mxCell id="7c3789c024ecab99-14" style="edgeStyle=none;html=1;labelBackgroundColor=none;endArrow=none;endFill=0;strokeWidth=2;fontFamily=Verdana;fontSize=15;fontColor=#036897;" parent="1" target="7c3789c024ecab99-9" edge="1">
          <mxGeometry relative="1" as="geometry">
            <mxPoint x="490.0000000000002" y="312.4107142857142" as="sourcePoint" />
          </mxGeometry>
        </mxCell>
        <mxCell id="7c3789c024ecab99-15" style="edgeStyle=none;html=1;labelBackgroundColor=none;endArrow=none;endFill=0;strokeWidth=2;fontFamily=Verdana;fontSize=15;fontColor=#036897;" parent="1" target="7c3789c024ecab99-9" edge="1">
          <mxGeometry relative="1" as="geometry">
            <mxPoint x="590.6849315068496" y="310" as="sourcePoint" />
          </mxGeometry>
        </mxCell>
        <mxCell id="7c3789c024ecab99-16" style="edgeStyle=none;html=1;labelBackgroundColor=none;endArrow=none;endFill=0;strokeWidth=2;fontFamily=Verdana;fontSize=15;fontColor=#036897;" parent="1" target="7c3789c024ecab99-9" edge="1">
          <mxGeometry relative="1" as="geometry">
            <mxPoint x="695.7534246575342" y="310" as="sourcePoint" />
          </mxGeometry>
        </mxCell>
        <mxCell id="7c3789c024ecab99-17" style="edgeStyle=none;html=1;labelBackgroundColor=none;endArrow=none;endFill=0;strokeWidth=2;fontFamily=Verdana;fontSize=15;fontColor=#036897;" parent="1" target="7c3789c024ecab99-9" edge="1">
          <mxGeometry relative="1" as="geometry">
            <mxPoint x="792.6027397260273" y="295" as="sourcePoint" />
          </mxGeometry>
        </mxCell>
        <mxCell id="7c3789c024ecab99-50" style="edgeStyle=orthogonalEdgeStyle;html=1;labelBackgroundColor=none;endArrow=none;endFill=0;strokeWidth=2;fontFamily=Verdana;fontSize=15;fontColor=#036897;" parent="1" target="7c3789c024ecab99-10" edge="1">
          <mxGeometry relative="1" as="geometry">
            <mxPoint x="1079.9999999999995" y="410" as="targetPoint" />
            <mxPoint x="770" y="650" as="sourcePoint" />
            <Array as="points">
              <mxPoint x="1340" y="650" />
            </Array>
          </mxGeometry>
        </mxCell>
        <mxCell id="7c3789c024ecab99-51" style="edgeStyle=orthogonalEdgeStyle;html=1;labelBackgroundColor=none;endArrow=none;endFill=0;strokeWidth=2;fontFamily=Verdana;fontSize=15;fontColor=#036897;" parent="1" target="7c3789c024ecab99-10" edge="1">
          <mxGeometry relative="1" as="geometry">
            <mxPoint x="1180" y="430" as="targetPoint" />
            <Array as="points">
              <mxPoint x="1340" y="1080" />
            </Array>
            <mxPoint x="770" y="1080" as="sourcePoint" />
          </mxGeometry>
        </mxCell>
        <mxCell id="7c3789c024ecab99-56" style="edgeStyle=none;html=1;labelBackgroundColor=none;endArrow=none;endFill=0;strokeWidth=2;fontFamily=Verdana;fontSize=28;fontColor=#6881B3;" parent="1" source="7c3789c024ecab99-54" edge="1">
          <mxGeometry relative="1" as="geometry">
            <mxPoint x="1810.8695652173915" y="829" as="targetPoint" />
          </mxGeometry>
        </mxCell>
        <mxCell id="7c3789c024ecab99-77" style="edgeStyle=none;html=1;labelBackgroundColor=none;endArrow=none;endFill=0;strokeWidth=2;fontFamily=Verdana;fontSize=28;fontColor=#6881B3;" parent="1" source="7c3789c024ecab99-54" edge="1">
          <mxGeometry relative="1" as="geometry">
            <mxPoint x="1838.8709677419356" y="1044" as="targetPoint" />
          </mxGeometry>
        </mxCell>
        <mxCell id="7c3789c024ecab99-54" value="&lt;b style=&quot;background-color: rgb(255 , 255 , 255)&quot;&gt;WebApp&lt;/b&gt;" style="fontColor=#0066CC;verticalAlign=top;verticalLabelPosition=bottom;labelPosition=center;align=center;html=1;fillColor=#CCCCCC;strokeColor=#6881B3;gradientDirection=north;strokeWidth=2;shape=mxgraph.networks.router;rounded=0;shadow=0;comic=0;" parent="1" vertex="1">
          <mxGeometry x="1650" y="882" width="100" height="30" as="geometry" />
        </mxCell>
        <mxCell id="7c3789c024ecab99-60" style="edgeStyle=none;html=1;labelBackgroundColor=none;endArrow=none;endFill=0;strokeWidth=2;fontFamily=Verdana;fontSize=28;fontColor=#6881B3;" parent="1" source="7c3789c024ecab99-57" target="7c3789c024ecab99-54" edge="1">
          <mxGeometry relative="1" as="geometry" />
        </mxCell>
        <mxCell id="7c3789c024ecab99-59" style="edgeStyle=none;html=1;labelBackgroundColor=none;endArrow=none;endFill=0;strokeWidth=2;fontFamily=Verdana;fontSize=28;fontColor=#6881B3;" parent="1" source="7c3789c024ecab99-58" target="7c3789c024ecab99-54" edge="1">
          <mxGeometry relative="1" as="geometry">
            <mxPoint x="1570" y="827" as="targetPoint" />
          </mxGeometry>
        </mxCell>
        <mxCell id="7c3789c024ecab99-58" value="&lt;b style=&quot;font-size: 16px&quot;&gt;SQL&lt;br&gt;DATABASE&lt;/b&gt;" style="fontColor=#0066CC;verticalAlign=top;verticalLabelPosition=bottom;labelPosition=center;align=center;html=1;fillColor=#CCCCCC;strokeColor=#6881B3;gradientDirection=north;strokeWidth=2;shape=mxgraph.networks.server_storage;rounded=0;shadow=0;comic=0;" parent="1" vertex="1">
          <mxGeometry x="1550" y="610" width="105" height="105" as="geometry" />
        </mxCell>
        <mxCell id="7c3789c024ecab99-75" style="edgeStyle=orthogonalEdgeStyle;html=1;labelBackgroundColor=none;endArrow=none;endFill=0;strokeWidth=2;fontFamily=Verdana;fontSize=28;fontColor=#6881B3;" parent="1" target="7c3789c024ecab99-10" edge="1">
          <mxGeometry relative="1" as="geometry">
            <mxPoint x="1240" y="760" as="targetPoint" />
            <Array as="points">
              <mxPoint x="1370" y="1552" />
            </Array>
            <mxPoint x="770" y="1552" as="sourcePoint" />
          </mxGeometry>
        </mxCell>
        <mxCell id="7c3789c024ecab99-10" value="&lt;b&gt;&lt;font style=&quot;font-size: 23px&quot;&gt;Server&lt;/font&gt;&lt;/b&gt;" style="fontColor=#0066CC;verticalAlign=top;verticalLabelPosition=bottom;labelPosition=center;align=center;html=1;fillColor=#CCCCCC;strokeColor=#6881B3;gradientDirection=north;strokeWidth=2;shape=mxgraph.networks.router;rounded=0;shadow=0;comic=0;" parent="1" vertex="1">
          <mxGeometry x="1300" y="882" width="100" height="30" as="geometry" />
        </mxCell>
        <mxCell id="IsxZeFrFsDxmlHhnj4ec-5" value="&lt;font color=&quot;#036897&quot;&gt;&lt;b&gt;Script&lt;/b&gt;&lt;/font&gt;" style="shape=note;whiteSpace=wrap;html=1;backgroundOutline=1;darkOpacity=0.05;" vertex="1" parent="1">
          <mxGeometry x="770" y="290" width="80" height="100" as="geometry" />
        </mxCell>
        <mxCell id="IsxZeFrFsDxmlHhnj4ec-6" value="&lt;font color=&quot;#036897&quot;&gt;&lt;b&gt;Script&lt;/b&gt;&lt;/font&gt;" style="shape=note;whiteSpace=wrap;html=1;backgroundOutline=1;darkOpacity=0.05;" vertex="1" parent="1">
          <mxGeometry x="670" y="290" width="80" height="100" as="geometry" />
        </mxCell>
        <mxCell id="IsxZeFrFsDxmlHhnj4ec-7" value="&lt;font color=&quot;#036897&quot;&gt;&lt;b&gt;Script&lt;/b&gt;&lt;/font&gt;" style="shape=note;whiteSpace=wrap;html=1;backgroundOutline=1;darkOpacity=0.05;" vertex="1" parent="1">
          <mxGeometry x="560" y="290" width="80" height="100" as="geometry" />
        </mxCell>
        <mxCell id="IsxZeFrFsDxmlHhnj4ec-8" value="&lt;font color=&quot;#036897&quot;&gt;&lt;b&gt;Script&lt;/b&gt;&lt;/font&gt;" style="shape=note;whiteSpace=wrap;html=1;backgroundOutline=1;darkOpacity=0.05;" vertex="1" parent="1">
          <mxGeometry x="460" y="290" width="80" height="100" as="geometry" />
        </mxCell>
        <mxCell id="IsxZeFrFsDxmlHhnj4ec-10" value="&lt;b&gt;DataBase&lt;/b&gt;" style="fontColor=#0066CC;verticalAlign=top;verticalLabelPosition=bottom;labelPosition=center;align=center;html=1;fillColor=#CCCCCC;strokeColor=#6881B3;gradientDirection=north;strokeWidth=2;shape=mxgraph.networks.storage;rounded=0;shadow=0;comic=0;" vertex="1" parent="1">
          <mxGeometry x="210" y="290" width="100" height="100" as="geometry" />
        </mxCell>
        <mxCell id="IsxZeFrFsDxmlHhnj4ec-17" value="" style="fontColor=#0066CC;verticalAlign=top;verticalLabelPosition=bottom;labelPosition=center;align=center;html=1;fillColor=#CCCCCC;strokeColor=#6881B3;gradientDirection=north;strokeWidth=2;shape=mxgraph.networks.wireless_hub;rounded=0;shadow=0;comic=0;" vertex="1" parent="1">
          <mxGeometry x="680.0000000000002" y="580" width="100" height="85" as="geometry" />
        </mxCell>
        <mxCell id="IsxZeFrFsDxmlHhnj4ec-18" style="edgeStyle=none;html=1;labelBackgroundColor=none;endArrow=none;endFill=0;strokeWidth=2;fontFamily=Verdana;fontSize=15;fontColor=#036897;" edge="1" target="IsxZeFrFsDxmlHhnj4ec-17" parent="1">
          <mxGeometry relative="1" as="geometry">
            <mxPoint x="660.0000000000002" y="700" as="targetPoint" />
            <mxPoint x="240.00000000000023" y="788.1018518518517" as="sourcePoint" />
          </mxGeometry>
        </mxCell>
        <mxCell id="IsxZeFrFsDxmlHhnj4ec-19" style="edgeStyle=none;html=1;labelBackgroundColor=none;endArrow=none;endFill=0;strokeWidth=2;fontFamily=Verdana;fontSize=15;fontColor=#036897;" edge="1" target="IsxZeFrFsDxmlHhnj4ec-17" parent="1">
          <mxGeometry relative="1" as="geometry">
            <mxPoint x="500.0000000000002" y="772.4107142857142" as="sourcePoint" />
          </mxGeometry>
        </mxCell>
        <mxCell id="IsxZeFrFsDxmlHhnj4ec-20" style="edgeStyle=none;html=1;labelBackgroundColor=none;endArrow=none;endFill=0;strokeWidth=2;fontFamily=Verdana;fontSize=15;fontColor=#036897;" edge="1" target="IsxZeFrFsDxmlHhnj4ec-17" parent="1">
          <mxGeometry relative="1" as="geometry">
            <mxPoint x="600.6849315068496" y="770" as="sourcePoint" />
          </mxGeometry>
        </mxCell>
        <mxCell id="IsxZeFrFsDxmlHhnj4ec-21" style="edgeStyle=none;html=1;labelBackgroundColor=none;endArrow=none;endFill=0;strokeWidth=2;fontFamily=Verdana;fontSize=15;fontColor=#036897;" edge="1" target="IsxZeFrFsDxmlHhnj4ec-17" parent="1">
          <mxGeometry relative="1" as="geometry">
            <mxPoint x="705.7534246575342" y="770" as="sourcePoint" />
          </mxGeometry>
        </mxCell>
        <mxCell id="IsxZeFrFsDxmlHhnj4ec-22" style="edgeStyle=none;html=1;labelBackgroundColor=none;endArrow=none;endFill=0;strokeWidth=2;fontFamily=Verdana;fontSize=15;fontColor=#036897;" edge="1" target="IsxZeFrFsDxmlHhnj4ec-17" parent="1">
          <mxGeometry relative="1" as="geometry">
            <mxPoint x="802.6027397260273" y="755" as="sourcePoint" />
          </mxGeometry>
        </mxCell>
        <mxCell id="IsxZeFrFsDxmlHhnj4ec-23" value="&lt;font color=&quot;#036897&quot;&gt;&lt;b&gt;Script&lt;/b&gt;&lt;/font&gt;" style="shape=note;whiteSpace=wrap;html=1;backgroundOutline=1;darkOpacity=0.05;" vertex="1" parent="1">
          <mxGeometry x="780" y="750" width="80" height="100" as="geometry" />
        </mxCell>
        <mxCell id="IsxZeFrFsDxmlHhnj4ec-24" value="&lt;font color=&quot;#036897&quot;&gt;&lt;b&gt;Script&lt;/b&gt;&lt;/font&gt;" style="shape=note;whiteSpace=wrap;html=1;backgroundOutline=1;darkOpacity=0.05;" vertex="1" parent="1">
          <mxGeometry x="680" y="750" width="80" height="100" as="geometry" />
        </mxCell>
        <mxCell id="IsxZeFrFsDxmlHhnj4ec-25" value="&lt;font color=&quot;#036897&quot;&gt;&lt;b&gt;Script&lt;/b&gt;&lt;/font&gt;" style="shape=note;whiteSpace=wrap;html=1;backgroundOutline=1;darkOpacity=0.05;" vertex="1" parent="1">
          <mxGeometry x="570" y="750" width="80" height="100" as="geometry" />
        </mxCell>
        <mxCell id="IsxZeFrFsDxmlHhnj4ec-26" value="&lt;font color=&quot;#036897&quot;&gt;&lt;b&gt;Script&lt;/b&gt;&lt;/font&gt;" style="shape=note;whiteSpace=wrap;html=1;backgroundOutline=1;darkOpacity=0.05;" vertex="1" parent="1">
          <mxGeometry x="470" y="750" width="80" height="100" as="geometry" />
        </mxCell>
        <mxCell id="IsxZeFrFsDxmlHhnj4ec-27" value="&lt;b&gt;DataBase&lt;/b&gt;" style="fontColor=#0066CC;verticalAlign=top;verticalLabelPosition=bottom;labelPosition=center;align=center;html=1;fillColor=#CCCCCC;strokeColor=#6881B3;gradientDirection=north;strokeWidth=2;shape=mxgraph.networks.storage;rounded=0;shadow=0;comic=0;" vertex="1" parent="1">
          <mxGeometry x="220" y="750" width="100" height="100" as="geometry" />
        </mxCell>
        <mxCell id="IsxZeFrFsDxmlHhnj4ec-28" value="" style="fontColor=#0066CC;verticalAlign=top;verticalLabelPosition=bottom;labelPosition=center;align=center;html=1;fillColor=#CCCCCC;strokeColor=#6881B3;gradientDirection=north;strokeWidth=2;shape=mxgraph.networks.wireless_hub;rounded=0;shadow=0;comic=0;" vertex="1" parent="1">
          <mxGeometry x="680.0000000000002" y="1010" width="100" height="85" as="geometry" />
        </mxCell>
        <mxCell id="IsxZeFrFsDxmlHhnj4ec-29" style="edgeStyle=none;html=1;labelBackgroundColor=none;endArrow=none;endFill=0;strokeWidth=2;fontFamily=Verdana;fontSize=15;fontColor=#036897;" edge="1" target="IsxZeFrFsDxmlHhnj4ec-28" parent="1">
          <mxGeometry relative="1" as="geometry">
            <mxPoint x="660.0000000000002" y="1130" as="targetPoint" />
            <mxPoint x="240.00000000000023" y="1218.1018518518517" as="sourcePoint" />
          </mxGeometry>
        </mxCell>
        <mxCell id="IsxZeFrFsDxmlHhnj4ec-30" style="edgeStyle=none;html=1;labelBackgroundColor=none;endArrow=none;endFill=0;strokeWidth=2;fontFamily=Verdana;fontSize=15;fontColor=#036897;" edge="1" target="IsxZeFrFsDxmlHhnj4ec-28" parent="1">
          <mxGeometry relative="1" as="geometry">
            <mxPoint x="500.0000000000002" y="1202.4107142857142" as="sourcePoint" />
          </mxGeometry>
        </mxCell>
        <mxCell id="IsxZeFrFsDxmlHhnj4ec-31" style="edgeStyle=none;html=1;labelBackgroundColor=none;endArrow=none;endFill=0;strokeWidth=2;fontFamily=Verdana;fontSize=15;fontColor=#036897;" edge="1" target="IsxZeFrFsDxmlHhnj4ec-28" parent="1">
          <mxGeometry relative="1" as="geometry">
            <mxPoint x="600.6849315068496" y="1200" as="sourcePoint" />
          </mxGeometry>
        </mxCell>
        <mxCell id="IsxZeFrFsDxmlHhnj4ec-32" style="edgeStyle=none;html=1;labelBackgroundColor=none;endArrow=none;endFill=0;strokeWidth=2;fontFamily=Verdana;fontSize=15;fontColor=#036897;" edge="1" target="IsxZeFrFsDxmlHhnj4ec-28" parent="1">
          <mxGeometry relative="1" as="geometry">
            <mxPoint x="705.7534246575342" y="1200" as="sourcePoint" />
          </mxGeometry>
        </mxCell>
        <mxCell id="IsxZeFrFsDxmlHhnj4ec-33" style="edgeStyle=none;html=1;labelBackgroundColor=none;endArrow=none;endFill=0;strokeWidth=2;fontFamily=Verdana;fontSize=15;fontColor=#036897;" edge="1" target="IsxZeFrFsDxmlHhnj4ec-28" parent="1">
          <mxGeometry relative="1" as="geometry">
            <mxPoint x="802.6027397260273" y="1185" as="sourcePoint" />
          </mxGeometry>
        </mxCell>
        <mxCell id="IsxZeFrFsDxmlHhnj4ec-34" value="&lt;font color=&quot;#036897&quot;&gt;&lt;b&gt;Script&lt;/b&gt;&lt;/font&gt;" style="shape=note;whiteSpace=wrap;html=1;backgroundOutline=1;darkOpacity=0.05;" vertex="1" parent="1">
          <mxGeometry x="780" y="1180" width="80" height="100" as="geometry" />
        </mxCell>
        <mxCell id="IsxZeFrFsDxmlHhnj4ec-35" value="&lt;font color=&quot;#036897&quot;&gt;&lt;b&gt;Script&lt;/b&gt;&lt;/font&gt;" style="shape=note;whiteSpace=wrap;html=1;backgroundOutline=1;darkOpacity=0.05;" vertex="1" parent="1">
          <mxGeometry x="680" y="1180" width="80" height="100" as="geometry" />
        </mxCell>
        <mxCell id="IsxZeFrFsDxmlHhnj4ec-36" value="&lt;font color=&quot;#036897&quot;&gt;&lt;b&gt;Script&lt;/b&gt;&lt;/font&gt;" style="shape=note;whiteSpace=wrap;html=1;backgroundOutline=1;darkOpacity=0.05;" vertex="1" parent="1">
          <mxGeometry x="570" y="1180" width="80" height="100" as="geometry" />
        </mxCell>
        <mxCell id="IsxZeFrFsDxmlHhnj4ec-37" value="&lt;font color=&quot;#036897&quot;&gt;&lt;b&gt;Script&lt;/b&gt;&lt;/font&gt;" style="shape=note;whiteSpace=wrap;html=1;backgroundOutline=1;darkOpacity=0.05;" vertex="1" parent="1">
          <mxGeometry x="470" y="1180" width="80" height="100" as="geometry" />
        </mxCell>
        <mxCell id="IsxZeFrFsDxmlHhnj4ec-38" value="&lt;b&gt;DataBase&lt;/b&gt;" style="fontColor=#0066CC;verticalAlign=top;verticalLabelPosition=bottom;labelPosition=center;align=center;html=1;fillColor=#CCCCCC;strokeColor=#6881B3;gradientDirection=north;strokeWidth=2;shape=mxgraph.networks.storage;rounded=0;shadow=0;comic=0;" vertex="1" parent="1">
          <mxGeometry x="220" y="1180" width="100" height="100" as="geometry" />
        </mxCell>
        <mxCell id="IsxZeFrFsDxmlHhnj4ec-39" value="" style="fontColor=#0066CC;verticalAlign=top;verticalLabelPosition=bottom;labelPosition=center;align=center;html=1;fillColor=#CCCCCC;strokeColor=#6881B3;gradientDirection=north;strokeWidth=2;shape=mxgraph.networks.wireless_hub;rounded=0;shadow=0;comic=0;" vertex="1" parent="1">
          <mxGeometry x="680.0000000000002" y="1480" width="100" height="85" as="geometry" />
        </mxCell>
        <mxCell id="IsxZeFrFsDxmlHhnj4ec-40" style="edgeStyle=none;html=1;labelBackgroundColor=none;endArrow=none;endFill=0;strokeWidth=2;fontFamily=Verdana;fontSize=15;fontColor=#036897;" edge="1" target="IsxZeFrFsDxmlHhnj4ec-39" parent="1">
          <mxGeometry relative="1" as="geometry">
            <mxPoint x="660.0000000000002" y="1600" as="targetPoint" />
            <mxPoint x="240.00000000000023" y="1688.1018518518517" as="sourcePoint" />
          </mxGeometry>
        </mxCell>
        <mxCell id="IsxZeFrFsDxmlHhnj4ec-41" style="edgeStyle=none;html=1;labelBackgroundColor=none;endArrow=none;endFill=0;strokeWidth=2;fontFamily=Verdana;fontSize=15;fontColor=#036897;" edge="1" target="IsxZeFrFsDxmlHhnj4ec-39" parent="1">
          <mxGeometry relative="1" as="geometry">
            <mxPoint x="500.0000000000002" y="1672.4107142857142" as="sourcePoint" />
          </mxGeometry>
        </mxCell>
        <mxCell id="IsxZeFrFsDxmlHhnj4ec-42" style="edgeStyle=none;html=1;labelBackgroundColor=none;endArrow=none;endFill=0;strokeWidth=2;fontFamily=Verdana;fontSize=15;fontColor=#036897;" edge="1" target="IsxZeFrFsDxmlHhnj4ec-39" parent="1">
          <mxGeometry relative="1" as="geometry">
            <mxPoint x="600.6849315068496" y="1670" as="sourcePoint" />
          </mxGeometry>
        </mxCell>
        <mxCell id="IsxZeFrFsDxmlHhnj4ec-43" style="edgeStyle=none;html=1;labelBackgroundColor=none;endArrow=none;endFill=0;strokeWidth=2;fontFamily=Verdana;fontSize=15;fontColor=#036897;" edge="1" target="IsxZeFrFsDxmlHhnj4ec-39" parent="1">
          <mxGeometry relative="1" as="geometry">
            <mxPoint x="705.7534246575342" y="1670" as="sourcePoint" />
          </mxGeometry>
        </mxCell>
        <mxCell id="IsxZeFrFsDxmlHhnj4ec-44" style="edgeStyle=none;html=1;labelBackgroundColor=none;endArrow=none;endFill=0;strokeWidth=2;fontFamily=Verdana;fontSize=15;fontColor=#036897;" edge="1" target="IsxZeFrFsDxmlHhnj4ec-39" parent="1">
          <mxGeometry relative="1" as="geometry">
            <mxPoint x="802.6027397260273" y="1655" as="sourcePoint" />
          </mxGeometry>
        </mxCell>
        <mxCell id="IsxZeFrFsDxmlHhnj4ec-45" value="&lt;font color=&quot;#036897&quot;&gt;&lt;b&gt;Script&lt;/b&gt;&lt;/font&gt;" style="shape=note;whiteSpace=wrap;html=1;backgroundOutline=1;darkOpacity=0.05;" vertex="1" parent="1">
          <mxGeometry x="780" y="1650" width="80" height="100" as="geometry" />
        </mxCell>
        <mxCell id="IsxZeFrFsDxmlHhnj4ec-46" value="&lt;font color=&quot;#036897&quot;&gt;&lt;b&gt;Script&lt;/b&gt;&lt;/font&gt;" style="shape=note;whiteSpace=wrap;html=1;backgroundOutline=1;darkOpacity=0.05;" vertex="1" parent="1">
          <mxGeometry x="680" y="1650" width="80" height="100" as="geometry" />
        </mxCell>
        <mxCell id="IsxZeFrFsDxmlHhnj4ec-47" value="&lt;font color=&quot;#036897&quot;&gt;&lt;b&gt;Script&lt;/b&gt;&lt;/font&gt;" style="shape=note;whiteSpace=wrap;html=1;backgroundOutline=1;darkOpacity=0.05;" vertex="1" parent="1">
          <mxGeometry x="570" y="1650" width="80" height="100" as="geometry" />
        </mxCell>
        <mxCell id="IsxZeFrFsDxmlHhnj4ec-48" value="&lt;font color=&quot;#036897&quot;&gt;&lt;b&gt;Script&lt;/b&gt;&lt;/font&gt;" style="shape=note;whiteSpace=wrap;html=1;backgroundOutline=1;darkOpacity=0.05;" vertex="1" parent="1">
          <mxGeometry x="470" y="1650" width="80" height="100" as="geometry" />
        </mxCell>
        <mxCell id="IsxZeFrFsDxmlHhnj4ec-49" value="&lt;b&gt;DataBase&lt;/b&gt;" style="fontColor=#0066CC;verticalAlign=top;verticalLabelPosition=bottom;labelPosition=center;align=center;html=1;fillColor=#CCCCCC;strokeColor=#6881B3;gradientDirection=north;strokeWidth=2;shape=mxgraph.networks.storage;rounded=0;shadow=0;comic=0;" vertex="1" parent="1">
          <mxGeometry x="220" y="1650" width="100" height="100" as="geometry" />
        </mxCell>
        <mxCell id="IsxZeFrFsDxmlHhnj4ec-53" value="&lt;b&gt;&lt;font style=&quot;font-size: 21px&quot;&gt;USER B&lt;/font&gt;&lt;/b&gt;" style="fontColor=#0066CC;verticalAlign=top;verticalLabelPosition=bottom;labelPosition=center;align=center;html=1;outlineConnect=0;fillColor=#CCCCCC;strokeColor=#6881B3;gradientDirection=north;strokeWidth=2;shape=mxgraph.networks.terminal;" vertex="1" parent="1">
          <mxGeometry x="1830" y="1030" width="130" height="110" as="geometry" />
        </mxCell>
        <mxCell id="IsxZeFrFsDxmlHhnj4ec-54" value="&lt;b&gt;&lt;font style=&quot;font-size: 21px&quot;&gt;USER A&lt;/font&gt;&lt;/b&gt;" style="fontColor=#0066CC;verticalAlign=top;verticalLabelPosition=bottom;labelPosition=center;align=center;html=1;outlineConnect=0;fillColor=#CCCCCC;strokeColor=#6881B3;gradientDirection=north;strokeWidth=2;shape=mxgraph.networks.terminal;" vertex="1" parent="1">
          <mxGeometry x="1810" y="772" width="130" height="110" as="geometry" />
        </mxCell>
        <mxCell id="IsxZeFrFsDxmlHhnj4ec-55" value="&lt;span style=&quot;font-size: 16px&quot;&gt;&lt;b&gt;AUTHENTICATION&lt;/b&gt;&lt;/span&gt;" style="fontColor=#0066CC;verticalAlign=top;verticalLabelPosition=bottom;labelPosition=center;align=center;html=1;outlineConnect=0;fillColor=#CCCCCC;strokeColor=#6881B3;gradientDirection=north;strokeWidth=2;shape=mxgraph.networks.secured;" vertex="1" parent="1">
          <mxGeometry x="1490" y="850" width="70" height="90" as="geometry" />
        </mxCell>
        <mxCell id="IsxZeFrFsDxmlHhnj4ec-56" style="edgeStyle=none;html=1;labelBackgroundColor=none;endArrow=none;endFill=0;strokeWidth=2;fontFamily=Verdana;fontSize=15;fontColor=#036897;" edge="1" parent="1" source="7c3789c024ecab99-10" target="IsxZeFrFsDxmlHhnj4ec-55">
          <mxGeometry relative="1" as="geometry">
            <mxPoint x="1490" y="897" as="targetPoint" />
            <mxPoint x="1400" y="897" as="sourcePoint" />
          </mxGeometry>
        </mxCell>
        <mxCell id="IsxZeFrFsDxmlHhnj4ec-58" value="" style="fontColor=#0066CC;verticalAlign=top;verticalLabelPosition=bottom;labelPosition=center;align=center;html=1;outlineConnect=0;fillColor=#CCCCCC;strokeColor=#6881B3;gradientDirection=north;strokeWidth=2;shape=mxgraph.networks.monitor;" vertex="1" parent="1">
          <mxGeometry x="1090" y="1970" width="890" height="720" as="geometry" />
        </mxCell>
        <mxCell id="IsxZeFrFsDxmlHhnj4ec-59" value="" style="rounded=0;whiteSpace=wrap;html=1;fillColor=#dae8fc;strokeColor=#6c8ebf;" vertex="1" parent="1">
          <mxGeometry x="1120" y="2000" width="110" height="450" as="geometry" />
        </mxCell>
        <mxCell id="IsxZeFrFsDxmlHhnj4ec-60" value="" style="rounded=0;whiteSpace=wrap;html=1;fillColor=#f5f5f5;strokeColor=#666666;fontColor=#333333;" vertex="1" parent="1">
          <mxGeometry x="1230" y="2000" width="710" height="450" as="geometry" />
        </mxCell>
        <mxCell id="IsxZeFrFsDxmlHhnj4ec-61" value="MENU" style="text;html=1;strokeColor=none;fillColor=none;align=center;verticalAlign=middle;whiteSpace=wrap;rounded=0;" vertex="1" parent="1">
          <mxGeometry x="1155" y="2020" width="40" height="20" as="geometry" />
        </mxCell>
        <mxCell id="IsxZeFrFsDxmlHhnj4ec-62" value="CONTENT" style="text;html=1;strokeColor=none;fillColor=none;align=center;verticalAlign=middle;whiteSpace=wrap;rounded=0;" vertex="1" parent="1">
          <mxGeometry x="1547.5" y="2020" width="75" height="20" as="geometry" />
        </mxCell>
        <mxCell id="IsxZeFrFsDxmlHhnj4ec-63" value="&lt;b&gt;Service A&lt;/b&gt;" style="rounded=1;whiteSpace=wrap;html=1;" vertex="1" parent="1">
          <mxGeometry x="1130" y="2070" width="90" height="30" as="geometry" />
        </mxCell>
        <mxCell id="IsxZeFrFsDxmlHhnj4ec-64" value="&lt;b&gt;Service B&lt;/b&gt;" style="rounded=1;whiteSpace=wrap;html=1;" vertex="1" parent="1">
          <mxGeometry x="1130" y="2110" width="90" height="30" as="geometry" />
        </mxCell>
        <mxCell id="IsxZeFrFsDxmlHhnj4ec-65" value="&lt;b&gt;Service C&lt;/b&gt;" style="rounded=1;whiteSpace=wrap;html=1;" vertex="1" parent="1">
          <mxGeometry x="1130" y="2150" width="90" height="30" as="geometry" />
        </mxCell>
        <mxCell id="IsxZeFrFsDxmlHhnj4ec-66" value="&lt;b&gt;Service D&lt;/b&gt;" style="rounded=1;whiteSpace=wrap;html=1;" vertex="1" parent="1">
          <mxGeometry x="1130" y="2190" width="90" height="30" as="geometry" />
        </mxCell>
        <mxCell id="IsxZeFrFsDxmlHhnj4ec-67" value="&lt;font style=&quot;font-size: 30px&quot; color=&quot;#003366&quot;&gt;&lt;b&gt;Service Content&lt;/b&gt;&lt;/font&gt;" style="rounded=0;whiteSpace=wrap;html=1;" vertex="1" parent="1">
          <mxGeometry x="1330" y="2090" width="480" height="290" as="geometry" />
        </mxCell>
        <mxCell id="IsxZeFrFsDxmlHhnj4ec-73" style="edgeStyle=orthogonalEdgeStyle;rounded=0;orthogonalLoop=1;jettySize=auto;html=1;exitX=1;exitY=0.5;exitDx=0;exitDy=0;exitPerimeter=0;entryX=0;entryY=0.5;entryDx=0;entryDy=0;strokeWidth=5;strokeColor=#003366;" edge="1" parent="1" source="IsxZeFrFsDxmlHhnj4ec-69" target="IsxZeFrFsDxmlHhnj4ec-63">
          <mxGeometry relative="1" as="geometry" />
        </mxCell>
        <mxCell id="IsxZeFrFsDxmlHhnj4ec-69" value="&lt;b&gt;&lt;font style=&quot;font-size: 15px&quot;&gt;Service A Server&lt;/font&gt;&lt;/b&gt;" style="fontColor=#0066CC;verticalAlign=top;verticalLabelPosition=bottom;labelPosition=center;align=center;html=1;outlineConnect=0;fillColor=#CCCCCC;strokeColor=#6881B3;gradientDirection=north;strokeWidth=2;shape=mxgraph.networks.virtual_server;" vertex="1" parent="1">
          <mxGeometry x="610" y="1920" width="110" height="120" as="geometry" />
        </mxCell>
        <mxCell id="IsxZeFrFsDxmlHhnj4ec-74" style="edgeStyle=orthogonalEdgeStyle;rounded=0;orthogonalLoop=1;jettySize=auto;html=1;exitX=1;exitY=0.5;exitDx=0;exitDy=0;exitPerimeter=0;entryX=0;entryY=0.5;entryDx=0;entryDy=0;strokeColor=#003366;strokeWidth=5;" edge="1" parent="1" source="IsxZeFrFsDxmlHhnj4ec-70" target="IsxZeFrFsDxmlHhnj4ec-64">
          <mxGeometry relative="1" as="geometry" />
        </mxCell>
        <mxCell id="IsxZeFrFsDxmlHhnj4ec-70" value="&lt;b&gt;&lt;font style=&quot;font-size: 15px&quot;&gt;Service B Server&lt;/font&gt;&lt;/b&gt;" style="fontColor=#0066CC;verticalAlign=top;verticalLabelPosition=bottom;labelPosition=center;align=center;html=1;outlineConnect=0;fillColor=#CCCCCC;strokeColor=#6881B3;gradientDirection=north;strokeWidth=2;shape=mxgraph.networks.virtual_server;" vertex="1" parent="1">
          <mxGeometry x="610" y="2090" width="110" height="120" as="geometry" />
        </mxCell>
        <mxCell id="IsxZeFrFsDxmlHhnj4ec-75" style="edgeStyle=orthogonalEdgeStyle;rounded=0;orthogonalLoop=1;jettySize=auto;html=1;exitX=1;exitY=0.5;exitDx=0;exitDy=0;exitPerimeter=0;entryX=0;entryY=0.5;entryDx=0;entryDy=0;strokeColor=#003366;strokeWidth=5;" edge="1" parent="1" source="IsxZeFrFsDxmlHhnj4ec-71" target="IsxZeFrFsDxmlHhnj4ec-65">
          <mxGeometry relative="1" as="geometry">
            <Array as="points">
              <mxPoint x="900" y="2320" />
              <mxPoint x="900" y="2165" />
            </Array>
          </mxGeometry>
        </mxCell>
        <mxCell id="IsxZeFrFsDxmlHhnj4ec-71" value="&lt;b&gt;&lt;font style=&quot;font-size: 15px&quot;&gt;Service C Server&lt;/font&gt;&lt;/b&gt;" style="fontColor=#0066CC;verticalAlign=top;verticalLabelPosition=bottom;labelPosition=center;align=center;html=1;outlineConnect=0;fillColor=#CCCCCC;strokeColor=#6881B3;gradientDirection=north;strokeWidth=2;shape=mxgraph.networks.virtual_server;" vertex="1" parent="1">
          <mxGeometry x="610" y="2260" width="110" height="120" as="geometry" />
        </mxCell>
        <mxCell id="IsxZeFrFsDxmlHhnj4ec-76" style="edgeStyle=orthogonalEdgeStyle;rounded=0;orthogonalLoop=1;jettySize=auto;html=1;exitX=1;exitY=0.5;exitDx=0;exitDy=0;exitPerimeter=0;entryX=0;entryY=0.5;entryDx=0;entryDy=0;strokeWidth=5;strokeColor=#003366;" edge="1" parent="1" source="IsxZeFrFsDxmlHhnj4ec-72" target="IsxZeFrFsDxmlHhnj4ec-66">
          <mxGeometry relative="1" as="geometry" />
        </mxCell>
        <mxCell id="IsxZeFrFsDxmlHhnj4ec-72" value="&lt;b&gt;&lt;font style=&quot;font-size: 15px&quot;&gt;Service D Server&lt;/font&gt;&lt;/b&gt;" style="fontColor=#0066CC;verticalAlign=top;verticalLabelPosition=bottom;labelPosition=center;align=center;html=1;outlineConnect=0;fillColor=#CCCCCC;strokeColor=#6881B3;gradientDirection=north;strokeWidth=2;shape=mxgraph.networks.virtual_server;" vertex="1" parent="1">
          <mxGeometry x="610" y="2430" width="110" height="120" as="geometry" />
        </mxCell>
      </root>
    </mxGraphModel>
  </diagram>
</mxfile>
